# xmcd CD database file
# Copyright (C) 1996 Ti Kan
#
# Track frame offsets:
#	150
#	16576
#	33164
#	44640
#	60606
#	73646
#	88288
#	104284
#	120264
#	140726
#	159943
#	193928
#	210411
# Disc length: 2985 seconds
#
# Revision: 1
# Processed by: cddbd v1.5.2PL0 Copyright (c) Steve Scherf et al.
# Submitted via: CDCOPY 4.900
#
DISCID=ae0ba70d
DTITLE=Renaud - Molly Malone
DYEAR=1900
DGENRE=
TTITLE0=vagabonds
TTITLE1=belfast mill
TTITLE2=johnston's motor car
TTITLE3=je reviendrai...
TTITLE4=adieu a rhonda
TTITLE5=la fille de cavan
TTITLE6=te marie pas, mary !
TTITLE7=a carlingford
TTITLE8=la ballade nord-irlandaise
TTITLE9=dubliners
TTITLE10=willy McBride
TTITLE11=Incendie
TTITLE12=Molly Malone
EXTD=
EXTT0=
EXTT1=
EXTT2=
EXTT3=
EXTT4=
EXTT5=
EXTT6=
EXTT7=
EXTT8=
EXTT9=
EXTT10=
EXTT11=
EXTT12=
PLAYORDER=
